<svg xmlns="http://www.w3.org/2000/svg" viewBox="0 0 16 16" shape-rendering="crispEdges" width="512" height="512"><rect width="16" height="16" fill="#f9d3ad"/><rect x="6" y="5" width="1" height="1" fill="rgb(83,83,83)" /><rect x="7" y="5" width="1" height="1" fill="rgb(83,83,83)" /><rect x="8" y="5" width="1" height="1" fill="rgb(83,83,83)" /><rect x="9" y="5" width="1" height="1" fill="rgb(83,85,86)" /><rect x="6" y="6" width="1" height="1" fill="rgb(83,83,83)" /><rect x="7" y="6" width="1" height="1" fill="rgb(83,83,83)" /><rect x="8" y="6" width="1" height="1" fill="rgb(83,83,83)" /><rect x="9" y="6" width="1" height="1" fill="rgb(83,83,83)" /><rect x="10" y="6" width="1" height="1" fill="rgb(83,85,86)" /><rect x="6" y="7" width="1" height="1" fill="rgb(83,83,83)" /><rect x="7" y="7" width="1" height="1" fill="rgb(83,83,83)" /><rect x="8" y="7" width="1" height="1" fill="rgb(83,83,83)" /><rect x="9" y="7" width="1" height="1" fill="rgb(83,83,83)" /><rect x="10" y="7" width="1" height="1" fill="rgb(83,85,86)" /><rect x="6" y="8" width="1" height="1" fill="rgb(83,83,83)" /><rect x="7" y="8" width="1" height="1" fill="rgb(83,83,83)" /><rect x="8" y="8" width="1" height="1" fill="rgb(83,83,83)" /><rect x="4" y="9" width="1" height="1" fill="rgb(84,84,84)" /><rect x="6" y="9" width="1" height="1" fill="rgb(83,83,83)" /><rect x="7" y="9" width="1" height="1" fill="rgb(83,83,83)" /><rect x="8" y="9" width="1" height="1" fill="rgb(83,83,83)" /><rect x="9" y="9" width="1" height="1" fill="rgb(83,85,86)" /><rect x="5" y="10" width="1" height="1" fill="rgb(84,84,84)" /><rect x="6" y="10" width="1" height="1" fill="rgb(83,83,83)" /><rect x="7" y="10" width="1" height="1" fill="rgb(83,83,83)" /><rect x="8" y="10" width="1" height="1" fill="rgb(83,83,83)" /><rect x="6" y="11" width="1" height="1" fill="rgb(83,85,86)" /><rect x="8" y="11" width="1" height="1" fill="rgb(83,85,86)" /><rect x="7" y="8" width="1" height="1" fill="rgb(203,70,45)" /><rect x="8" y="8" width="1" height="1" fill="rgb(203,70,45)" /><rect x="8" y="9" width="1" height="1" fill="rgb(203,70,45)" /><rect x="7" y="10" width="1" height="1" fill="rgb(203,70,45)" /><rect x="8" y="10" width="1" height="1" fill="rgb(203,70,45)" /><rect x="7" y="6" width="1" height="1" fill="rgb(183,59,184)" /><rect x="9" y="6" width="1" height="1" fill="rgb(39,189,201)" /><rect x="6" y="4" width="1" height="1" fill="rgb(190,150,86)" /><rect x="8" y="4" width="1" height="1" fill="rgb(190,150,86)" /><rect x="5" y="5" width="1" height="1" fill="rgb(190,150,86)" /><rect x="5" y="7" width="1" height="1" fill="rgb(190,150,86)" /><rect x="5" y="9" width="1" height="1" fill="rgb(190,150,86)" /><rect x="0" y="0" width="0" height="0" fill="rgb(0,0,0)"/><rect x="0" y="0" width="0" height="0" fill="rgb(0,0,0)"/><rect x="5" y="3" width="1" height="1" fill="rgb(240,169,42)" /><rect x="7" y="3" width="1" height="1" fill="rgb(241,169,41)" /><rect x="9" y="3" width="1" height="1" fill="rgb(240,169,42)" /><rect x="5" y="4" width="1" height="1" fill="rgb(241,169,41)" /><rect x="6" y="4" width="1" height="1" fill="rgb(240,168,43)" /><rect x="7" y="4" width="1" height="1" fill="rgb(240,168,42)" /><rect x="8" y="4" width="1" height="1" fill="rgb(241,169,42)" /><rect x="9" y="4" width="1" height="1" fill="rgb(240,169,42)" /></svg>