<svg xmlns="http://www.w3.org/2000/svg" viewBox="0 0 16 16" shape-rendering="crispEdges" width="512" height="512"><rect width="16" height="16" fill="#f9d3ad"/><rect x="6" y="5" width="1" height="1" fill="rgb(40,45,85)" /><rect x="7" y="5" width="1" height="1" fill="rgb(40,45,85)" /><rect x="8" y="5" width="1" height="1" fill="rgb(40,45,85)" /><rect x="9" y="5" width="1" height="1" fill="rgb(40,45,85)" /><rect x="6" y="6" width="1" height="1" fill="rgb(37,46,110)" /><rect x="7" y="6" width="1" height="1" fill="rgb(37,46,110)" /><rect x="8" y="6" width="1" height="1" fill="rgb(37,46,110)" /><rect x="9" y="6" width="1" height="1" fill="rgb(37,46,110)" /><rect x="10" y="6" width="1" height="1" fill="rgb(37,46,110)" /><rect x="6" y="7" width="1" height="1" fill="rgb(37,48,129)" /><rect x="7" y="7" width="1" height="1" fill="rgb(37,48,129)" /><rect x="8" y="7" width="1" height="1" fill="rgb(37,48,129)" /><rect x="9" y="7" width="1" height="1" fill="rgb(37,48,129)" /><rect x="10" y="7" width="1" height="1" fill="rgb(38,48,129)" /><rect x="6" y="8" width="1" height="1" fill="rgb(33,46,144)" /><rect x="7" y="8" width="1" height="1" fill="rgb(33,46,144)" /><rect x="8" y="8" width="1" height="1" fill="rgb(34,46,143)" /><rect x="4" y="9" width="1" height="1" fill="rgb(32,46,165)" /><rect x="6" y="9" width="1" height="1" fill="rgb(31,47,165)" /><rect x="7" y="9" width="1" height="1" fill="rgb(31,47,165)" /><rect x="8" y="9" width="1" height="1" fill="rgb(31,46,165)" /><rect x="9" y="9" width="1" height="1" fill="rgb(32,46,165)" /><rect x="5" y="10" width="1" height="1" fill="rgb(33,51,184)" /><rect x="6" y="10" width="1" height="1" fill="rgb(33,51,184)" /><rect x="7" y="10" width="1" height="1" fill="rgb(33,51,184)" /><rect x="8" y="10" width="1" height="1" fill="rgb(34,51,183)" /><rect x="6" y="11" width="1" height="1" fill="rgb(30,50,211)" /><rect x="8" y="11" width="1" height="1" fill="rgb(30,50,211)" /><rect x="7" y="8" width="1" height="1" fill="rgb(133,133,48)" /><rect x="8" y="8" width="1" height="1" fill="rgb(133,133,48)" /><rect x="8" y="9" width="1" height="1" fill="rgb(133,133,48)" /><rect x="7" y="10" width="1" height="1" fill="rgb(133,133,48)" /><rect x="8" y="10" width="1" height="1" fill="rgb(133,133,48)" /><rect x="7" y="6" width="1" height="1" fill="rgb(66,171,190)" /><rect x="9" y="6" width="1" height="1" fill="rgb(66,171,190)" /><rect x="6" y="4" width="1" height="1" fill="rgb(51,81,173)" /><rect x="8" y="4" width="1" height="1" fill="rgb(51,81,173)" /><rect x="5" y="5" width="1" height="1" fill="rgb(51,81,173)" /><rect x="5" y="7" width="1" height="1" fill="rgb(51,81,173)" /><rect x="5" y="9" width="1" height="1" fill="rgb(51,81,173)" /><rect x="4" y="11" width="1" height="1" fill="rgb(132,179,198)" /><rect x="10" y="11" width="1" height="1" fill="rgb(132,179,198)" /><rect x="5" y="12" width="1" height="1" fill="rgb(133,180,199)" /><rect x="6" y="12" width="1" height="1" fill="rgb(133,181,199)" /><rect x="7" y="12" width="1" height="1" fill="rgb(133,181,199)" /><rect x="8" y="12" width="1" height="1" fill="rgb(133,180,199)" /><rect x="9" y="12" width="1" height="1" fill="rgb(133,180,199)" /><rect x="6" y="13" width="1" height="1" fill="rgb(70,79,83)" /><rect x="8" y="13" width="1" height="1" fill="rgb(70,79,83)" /><rect x="0" y="0" width="0" height="0" fill="rgb(0,0,0)"/><rect x="0" y="0" width="0" height="0" fill="rgb(0,0,0)"/></svg>